<svg width="24" height="24" viewBox="0 0 24 24" fill="none" xmlns="http://www.w3.org/2000/svg">
<path fill-rule="evenodd" clip-rule="evenodd" d="M7.03758 1H16.8408C20.1702 1 22.8787 3.70859 22.8786 7.03771V16.8409C22.8786 20.17 20.1702 22.8786 16.8408 22.8786H7.03758C3.70846 22.8786 1 20.1702 1 16.8409V7.03771C1 3.70859 3.70846 1 7.03758 1ZM16.8409 20.9374C19.0998 20.9374 20.9376 19.0998 20.9376 16.8409H20.9374V7.03771C20.9374 4.77895 19.0997 2.94118 16.8408 2.94118H7.03758C4.77882 2.94118 2.94118 4.77895 2.94118 7.03771V16.8409C2.94118 19.0998 4.77882 20.9376 7.03758 20.9374H16.8409Z" fill="#24B4E6"/>
<path fill-rule="evenodd" clip-rule="evenodd" d="M6.30078 11.9393C6.30078 8.83072 8.82975 6.30176 11.9383 6.30176C15.0469 6.30176 17.5759 8.83072 17.5759 11.9393C17.5759 15.0478 15.0469 17.5766 11.9383 17.5766C8.82975 17.5766 6.30078 15.0478 6.30078 11.9393ZM8.24196 11.9392C8.24196 13.9773 9.90024 15.6353 11.9383 15.6353C13.9765 15.6353 15.6347 13.9773 15.6347 11.9392C15.6347 9.90096 13.9766 8.2428 11.9383 8.2428C9.90011 8.2428 8.24196 9.90096 8.24196 11.9392Z" fill="#24B4E6"/>
<path d="M17.8142 4.65625C17.4402 4.65625 17.0728 4.80766 16.8086 5.07296C16.5432 5.33696 16.3906 5.70449 16.3906 6.07978C16.3906 6.45391 16.5433 6.82131 16.8086 7.0866C17.0726 7.3506 17.4402 7.50331 17.8142 7.50331C18.1894 7.50331 18.5557 7.3506 18.821 7.0866C19.0863 6.82131 19.2377 6.45378 19.2377 6.07978C19.2377 5.70449 19.0863 5.33696 18.821 5.07296C18.557 4.80766 18.1894 4.65625 17.8142 4.65625Z" fill="#24B4E6"/>
</svg>
