<svg width="30" height="30" viewBox="0 0 30 30" fill="none" xmlns="http://www.w3.org/2000/svg">
<path d="M0.591515 24.4938C3.36902 26.2563 6.60152 27.1875 9.93902 27.1875C14.8265 27.1875 19.3053 25.31 22.5515 21.9013C25.6578 18.6388 27.3665 14.255 27.2815 9.80625C28.459 8.79875 29.844 6.875 29.844 5C29.844 4.28125 29.064 3.825 28.4315 4.19125C27.3253 4.84125 26.3165 5.01125 25.279 4.72C23.1603 2.655 20.0065 2.22 17.349 3.6525C15.0265 4.9025 13.7353 7.19 13.8515 9.69C9.92777 9.21125 6.30277 7.24375 3.77527 4.18625C3.36027 3.6875 2.57277 3.74625 2.24277 4.31125C1.02527 6.39625 1.03777 8.8125 2.09652 10.7638C1.59277 10.8525 1.28152 11.2763 1.28152 11.735C1.28152 13.6963 2.16402 15.4988 3.58527 16.7288C3.32027 16.9838 3.23277 17.3625 3.34527 17.7C3.97027 19.5775 5.38527 21.045 7.15402 21.78C5.23027 22.6988 3.10277 23.005 1.20902 22.7725C0.229015 22.64 -0.254735 23.9575 0.591515 24.4938ZM10.1953 22.1013C10.8965 21.5625 10.524 20.44 9.64402 20.4213C8.09402 20.3888 6.68277 19.625 5.80402 18.4238C6.22777 18.3963 6.66652 18.3313 7.08402 18.2188C8.03527 17.9613 7.99027 16.5888 7.02402 16.395C5.27027 16.0425 3.89402 14.765 3.37777 13.12C3.84902 13.2363 4.32902 13.3013 4.80777 13.31C5.75652 13.315 6.11527 12.0988 5.34152 11.59C3.59777 10.4413 2.85402 8.4125 3.34652 6.505C6.39152 9.59 10.5228 11.4488 14.8928 11.6588C15.519 11.6975 15.989 11.1088 15.8515 10.5125C15.2578 7.93875 16.6953 6.135 18.239 5.30375C19.7665 4.47875 22.219 4.22125 24.099 6.19375C24.6578 6.7825 26.5428 6.805 27.5015 6.58125C27.0715 7.39125 26.4103 8.16 25.7915 8.5925C25.5278 8.7775 25.3765 9.085 25.3928 9.40625C25.594 13.5125 24.064 17.595 21.1953 20.6063C18.3053 23.64 14.309 25.3113 9.94027 25.3113C8.20277 25.3113 6.49902 25.0288 4.88902 24.4838C6.81402 24.1113 8.64277 23.2963 10.1953 22.1013Z" fill="#94C31F"/>
</svg>
