<svg width="24" height="24" viewBox="0 0 24 24" fill="none" xmlns="http://www.w3.org/2000/svg">
<path d="M23 5.13356C22.1903 5.49562 21.3215 5.74116 20.4086 5.85078C21.3407 5.28755 22.0542 4.39418 22.3923 3.33293C21.518 3.85452 20.5529 4.23326 19.5246 4.43858C18.7011 3.55214 17.5299 3 16.2307 3C13.7383 3 11.7174 5.03925 11.7174 7.55293C11.7174 7.90944 11.7573 8.25764 11.8343 8.5906C8.08401 8.40052 4.75852 6.58741 2.53281 3.83232C2.14375 4.50376 1.92242 5.28613 1.92242 6.12128C1.92242 7.70137 2.71978 9.09555 3.92956 9.91122C3.18994 9.88626 2.49431 9.68094 1.88532 9.33967V9.39655C1.88532 11.6023 3.44154 13.4431 5.50501 13.8621C5.12695 13.9648 4.72829 14.0216 4.31586 14.0216C4.02443 14.0216 3.7426 13.9925 3.46627 13.937C4.04089 15.7474 5.70711 17.0638 7.68125 17.0999C6.1374 18.3207 4.19076 19.0462 2.07642 19.0462C1.71213 19.0462 1.35329 19.024 1 18.9838C2.99751 20.2781 5.36895 21.0328 7.91772 21.0328C16.2198 21.0328 20.7578 14.0938 20.7578 8.07594L20.7427 7.48637C21.6294 6.84819 22.3965 6.04638 23 5.13356Z" fill="#24B4E6"/>
</svg>
