<svg width="306" height="304" viewBox="0 0 306 304" fill="none" xmlns="http://www.w3.org/2000/svg">
<path d="M247.467 4.24595C272.971 15.9512 282.799 55.7491 292.392 93.9082C302.22 131.833 312.048 167.885 301.284 196.446C290.755 225.007 259.634 246.077 229.45 264.337C199.265 282.597 169.783 298.048 137.258 302.262C104.734 306.476 69.1675 299.219 46.9386 278.383C24.4757 257.548 15.1162 223.368 8.56451 190.828C2.01283 158.521 -1.73099 128.088 1.31086 93.9082C4.11872 59.7289 13.4783 21.8038 37.8131 9.63037C62.1479 -2.309 101.224 11.7373 141.236 10.3327C181.248 9.16216 222.196 -7.45931 247.467 4.24595Z" fill="#94C31F"/>
</svg>
