<svg width="18" height="20" viewBox="0 0 18 20" fill="none" xmlns="http://www.w3.org/2000/svg">
<path d="M3.41644 17.7119L3.4164 17.7119C2.55053 17.075 1.77483 16.3258 1.25492 15.7526C3.62525 12.3655 6.59469 11.5263 9 11.5263C11.4053 11.5263 14.3748 12.3655 16.7451 15.7526C16.2252 16.3258 15.4495 17.075 14.5836 17.7119L14.5836 17.7119C13.5561 18.4678 12.489 19 11.6084 19H6.39164C5.51097 19 4.44392 18.4678 3.41644 17.7119ZM5.30495 4.73684C5.30495 2.66461 6.96765 1 9 1C11.0323 1 12.6951 2.66461 12.6951 4.73684C12.6951 6.80907 11.0323 8.47368 9 8.47368C6.96765 8.47368 5.30495 6.80907 5.30495 4.73684Z" stroke="#6743EF" stroke-width="2"/>
</svg>
