<svg width="38" height="138" viewBox="0 0 38 138" fill="none" xmlns="http://www.w3.org/2000/svg">
<path opacity="0.3" d="M1.94156 136.396C1.95785 136.672 2.19453 136.882 2.47019 136.866L6.96235 136.6C7.23801 136.584 7.44827 136.347 7.43197 136.071C7.41568 135.796 7.179 135.586 6.90334 135.602L2.91031 135.838L2.6743 131.845C2.658 131.569 2.42133 131.359 2.14566 131.375C1.87 131.391 1.65974 131.628 1.67604 131.904L1.94156 136.396ZM14.1012 1.75929C14.8139 2.53873 15.5057 3.3207 16.1772 4.10498L16.9368 3.45461C16.2582 2.66199 15.5591 1.87189 14.8392 1.08451L14.1012 1.75929ZM20.0208 8.91133C21.2717 10.5909 22.4353 12.2791 23.5154 13.9739L24.3587 13.4365C23.2654 11.7209 22.0881 10.0128 20.8228 8.314L20.0208 8.91133ZM26.6219 19.2857C27.6055 21.1285 28.497 22.9769 29.3014 24.8285L30.2186 24.4301C29.4035 22.5538 28.5003 20.6812 27.5041 18.8148L26.6219 19.2857ZM31.5207 30.5738C32.1894 32.544 32.7659 34.5153 33.2563 36.4849L34.2266 36.2433C33.7297 34.2472 33.1454 32.2493 32.4676 30.2524L31.5207 30.5738ZM34.4968 42.5203C34.8305 44.5654 35.0774 46.6055 35.2442 48.6375L36.2408 48.5557C36.0719 46.4979 35.8219 44.4313 35.4838 42.3593L34.4968 42.5203ZM35.5114 54.7958C35.5228 56.8634 35.4569 58.919 35.321 60.959L36.3188 61.0255C36.4563 58.9624 36.523 56.8828 36.5114 54.7903L35.5114 54.7958ZM34.7014 67.0964C34.4252 69.1466 34.0835 71.1767 33.6842 73.1831L34.665 73.3783C35.0682 71.3524 35.4133 69.3017 35.6924 67.2299L34.7014 67.0964ZM32.3024 79.1995C31.7806 81.2071 31.2063 83.1855 30.5881 85.1304L31.5411 85.4333C32.1644 83.4722 32.7437 81.4768 33.2703 79.4511L32.3024 79.1995ZM28.5719 90.9638C27.8415 92.9211 27.0727 94.8372 26.2752 96.7074L27.195 97.0997C27.9982 95.2161 28.7728 93.2858 29.5088 91.3134L28.5719 90.9638ZM23.7241 102.348C22.815 104.249 21.8844 106.092 20.9446 107.871L21.8287 108.338C22.7745 106.548 23.7111 104.693 24.6263 102.779L23.7241 102.348ZM17.96 113.265C16.8794 115.134 15.8034 116.911 14.7501 118.586L15.5966 119.118C16.6562 117.433 17.7386 115.646 18.8257 113.766L17.96 113.265ZM11.3742 123.745C10.1006 125.617 8.89902 127.301 7.8089 128.78L8.61386 129.373C9.7109 127.885 10.9198 126.19 12.2009 124.308L11.3742 123.745ZM4.00796 133.713C3.39398 134.473 2.90756 135.054 2.57521 135.445C2.40903 135.641 2.28137 135.789 2.19555 135.887C2.15264 135.937 2.12018 135.974 2.0986 135.998C2.08781 136.011 2.07974 136.02 2.07443 136.026C2.07178 136.029 2.06982 136.031 2.06856 136.033C2.06793 136.033 2.06748 136.034 2.0672 136.034C2.06706 136.034 2.06696 136.034 2.06691 136.034C2.06688 136.034 2.06687 136.034 2.06686 136.034C2.06686 136.034 2.06687 136.034 2.06687 136.034C2.06688 136.034 2.06689 136.034 2.44068 136.366C2.81448 136.699 2.8145 136.699 2.81452 136.699C2.81453 136.699 2.81455 136.698 2.81457 136.698C2.81461 136.698 2.81466 136.698 2.81472 136.698C2.81485 136.698 2.81502 136.698 2.81523 136.698C2.81565 136.697 2.81625 136.697 2.81703 136.696C2.81858 136.694 2.82083 136.691 2.82377 136.688C2.82966 136.681 2.83832 136.672 2.8497 136.659C2.87246 136.633 2.9061 136.594 2.95021 136.544C3.03844 136.442 3.16854 136.291 3.33721 136.093C3.67455 135.696 4.16617 135.108 4.78553 134.342L4.00796 133.713ZM1.44243 136.425C1.47501 136.977 1.94837 137.397 2.49969 137.365L11.484 136.834C12.0353 136.801 12.4558 136.328 12.4233 135.776C12.3907 135.225 11.9173 134.805 11.366 134.837L3.37994 135.309L2.9079 127.323C2.87532 126.772 2.40197 126.351 1.85064 126.384C1.29932 126.416 0.878802 126.89 0.91139 127.441L1.44243 136.425ZM13.7322 2.09668C14.4412 2.87215 15.1295 3.65005 15.7974 4.43017L17.3166 3.12942C16.6344 2.33264 15.9318 1.53847 15.2082 0.747115L13.7322 2.09668ZM19.6198 9.21C20.8636 10.8799 22.0202 12.5581 23.0938 14.2427L24.7804 13.1678C23.6804 11.4418 22.4962 9.72372 21.2238 8.01533L19.6198 9.21ZM26.1808 19.5212C27.1581 21.3521 28.0437 23.1884 28.8428 25.0277L30.6772 24.2308C29.8567 22.3423 28.9477 20.4576 27.9452 18.5794L26.1808 19.5212ZM31.0472 30.7345C31.7114 32.6914 32.284 34.6494 32.7711 36.6057L34.7118 36.1225C34.2116 34.1131 33.6234 32.1019 32.9411 30.0917L31.0472 30.7345ZM34.0034 42.6009C34.3349 44.6324 34.5801 46.6593 34.7458 48.6784L36.7391 48.5148C36.5692 46.4441 36.3176 44.3643 35.9773 42.2788L34.0034 42.6009ZM35.0114 54.7986C35.0228 56.8537 34.9573 58.8973 34.8221 60.9258L36.8177 61.0587C36.9559 58.9841 37.023 56.8925 37.0114 54.7875L35.0114 54.7986ZM34.2058 67.0296C33.9311 69.0691 33.5912 71.0889 33.1939 73.0855L35.1554 73.4759C35.5605 71.4402 35.9074 69.3792 36.1879 67.2966L34.2058 67.0296ZM31.8185 79.0737C31.299 81.0723 30.7272 83.0421 30.1116 84.979L32.0176 85.5848C32.6435 83.6156 33.2253 81.6116 33.7542 79.5769L31.8185 79.0737ZM28.1035 90.789C27.3759 92.7388 26.6099 94.6478 25.8152 96.5113L27.6549 97.2958C28.461 95.4056 29.2384 93.4681 29.9773 91.4882L28.1035 90.789ZM23.273 102.132C22.3669 104.027 21.4394 105.864 20.5025 107.637L22.2708 108.572C23.2195 106.776 24.1591 104.915 25.0774 102.995L23.273 102.132ZM17.5272 113.015C16.4498 114.878 15.377 116.649 14.3268 118.32L16.0199 119.384C17.0826 117.694 18.1682 115.902 19.2586 114.016L17.5272 113.015ZM10.9608 123.464C9.69106 125.33 8.49308 127.009 7.40642 128.483L9.01633 129.67C10.1168 128.177 11.3294 126.477 12.6142 124.589L10.9608 123.464ZM3.61918 133.399C3.00788 134.155 2.52407 134.733 2.1942 135.122C2.02927 135.316 1.90284 135.462 1.81821 135.559C1.7759 135.608 1.74404 135.644 1.72305 135.668C1.71255 135.68 1.70477 135.689 1.69976 135.695C1.69726 135.698 1.69544 135.7 1.69433 135.701C1.69377 135.702 1.69339 135.702 1.69318 135.702C1.69308 135.702 1.69302 135.702 1.693 135.702C1.693 135.702 1.693 135.702 1.69301 135.702C1.69302 135.702 1.69304 135.702 1.69304 135.702C1.69306 135.702 1.69309 135.702 2.44068 136.366C3.18828 137.031 3.18831 137.031 3.18834 137.031C3.18836 137.031 3.18839 137.031 3.18842 137.03C3.18848 137.03 3.18855 137.03 3.18863 137.03C3.18879 137.03 3.189 137.03 3.18924 137.03C3.18974 137.029 3.19041 137.028 3.19126 137.027C3.19296 137.025 3.19535 137.023 3.19844 137.019C3.20462 137.012 3.21357 137.002 3.22524 136.989C3.24859 136.962 3.28283 136.923 3.32754 136.872C3.41697 136.769 3.5483 136.617 3.71822 136.417C4.05804 136.017 4.55226 135.426 5.17431 134.657L3.61918 133.399Z" fill="white"/>
</svg>
