<svg width="22" height="22" viewBox="0 0 22 22" fill="none" xmlns="http://www.w3.org/2000/svg">
<g clip-path="url(#clip0_274_378)">
<path d="M12.4858 21.957H8.9558C8.36618 21.957 7.88654 21.4783 7.88654 20.8899V12.9433H5.82707C5.23745 12.9433 4.75781 12.4645 4.75781 11.8762V8.47106C4.75781 7.88258 5.23745 7.40389 5.82707 7.40389H7.88654V5.69873C7.88654 4.00801 8.41848 2.56957 9.42467 1.53915C10.4354 0.504044 11.8479 -0.0429688 13.5095 -0.0429688L16.2016 -0.0386048C16.7902 -0.0375977 17.269 0.441101 17.269 1.02856V4.19012C17.269 4.7786 16.7896 5.25729 16.2001 5.25729L14.3875 5.25797C13.8347 5.25797 13.694 5.36858 13.6639 5.40248C13.6143 5.45871 13.5552 5.61766 13.5552 6.05658V7.40372H16.0639C16.2528 7.40372 16.4357 7.45021 16.593 7.53783C16.9322 7.72699 17.1431 8.08467 17.1431 8.47122L17.1417 11.8763C17.1417 12.4645 16.6621 12.9432 16.0725 12.9432H13.5552V20.8899C13.5552 21.4783 13.0754 21.957 12.4858 21.957ZM9.1788 20.6673H12.2628V12.3659C12.2628 11.973 12.5832 11.6534 12.9767 11.6534H15.8495L15.8506 8.69362H12.9765C12.583 8.69362 12.2628 8.37404 12.2628 7.98111V6.05658C12.2628 5.5527 12.3141 4.97968 12.6952 4.54898C13.1556 4.02832 13.8813 3.96823 14.3872 3.96823L15.9768 3.96756V1.25079L13.5085 1.24677C10.8382 1.24677 9.1788 2.95276 9.1788 5.69873V7.98111C9.1788 8.37387 8.8586 8.69362 8.46507 8.69362H6.05007V11.6534H8.46507C8.8586 11.6534 9.1788 11.973 9.1788 12.3659V20.6673ZM16.1991 1.25113H16.1993H16.1991Z" fill="#94C31F"/>
</g>
<defs>
<clipPath id="clip0_274_378">
<rect width="22" height="22" fill="white"/>
</clipPath>
</defs>
</svg>
