<svg width="24" height="24" viewBox="0 0 24 24" fill="none" xmlns="http://www.w3.org/2000/svg">
<path d="M16.762 1.00458L13.8304 1C10.5369 1 8.40851 3.12509 8.40851 6.41423V8.91055H5.46096C5.20626 8.91055 5 9.1115 5 9.35937V12.9763C5 13.2241 5.20649 13.4249 5.46096 13.4249H8.40851V22.5514C8.40851 22.7993 8.61476 23 8.86946 23H12.7152C12.9699 23 13.1761 22.799 13.1761 22.5514V13.4249H16.6225C16.8772 13.4249 17.0835 13.2241 17.0835 12.9763L17.0849 9.35937C17.0849 9.24036 17.0362 9.12638 16.9499 9.04215C16.8636 8.95793 16.746 8.91055 16.6237 8.91055H13.1761V6.79439C13.1761 5.77728 13.4252 5.26094 14.7867 5.26094L16.7615 5.26025C17.016 5.26025 17.2222 5.0593 17.2222 4.81166V1.45317C17.2222 1.20576 17.0162 1.00504 16.762 1.00458Z" fill="#24B4E6"/>
</svg>
