<svg width="30" height="30" viewBox="0 0 30 30" fill="none" xmlns="http://www.w3.org/2000/svg">
<g clip-path="url(#clip0_262_232)">
<path d="M16.9922 29.9414H12.188C11.3855 29.9414 10.7327 29.2886 10.7327 28.4862V17.65H7.92984C7.12738 17.65 6.47461 16.997 6.47461 16.1948V11.5514C6.47461 10.749 7.12738 10.0962 7.92984 10.0962H10.7327V7.771C10.7327 5.46547 11.4567 3.50395 12.8261 2.09885C14.2017 0.687332 16.124 -0.0585938 18.3854 -0.0585938L22.0493 -0.0526429C22.8504 -0.0512695 23.502 0.601502 23.502 1.40259V5.71381C23.502 6.51627 22.8495 7.16904 22.0473 7.16904L19.5804 7.16995C18.8281 7.16995 18.6365 7.32079 18.5955 7.36702C18.528 7.4437 18.4476 7.66045 18.4476 8.25897V10.096H21.8619C22.1189 10.096 22.3679 10.1594 22.5819 10.2789C23.0436 10.5368 23.3306 11.0246 23.3306 11.5517L23.3288 16.195C23.3288 16.997 22.676 17.6498 21.8736 17.6498H18.4476V28.4862C18.4476 29.2886 17.7946 29.9414 16.9922 29.9414ZM12.4915 28.1827H16.6887V16.8626C16.6887 16.3268 17.1247 15.891 17.6603 15.891H21.5701L21.5717 11.8549H17.6601C17.1245 11.8549 16.6887 11.4191 16.6887 10.8833V8.25897C16.6887 7.57187 16.7585 6.79047 17.2771 6.20316C17.9038 5.49316 18.8915 5.41122 19.5799 5.41122L21.7433 5.41031V1.70563L18.384 1.70013C14.7498 1.70013 12.4915 4.02649 12.4915 7.771V10.8833C12.4915 11.4189 12.0557 11.8549 11.5201 11.8549H8.23334V15.891H11.5201C12.0557 15.891 12.4915 16.3268 12.4915 16.8626V28.1827ZM22.0459 1.70609H22.0461H22.0459Z" fill="#94C31F"/>
</g>
<defs>
<clipPath id="clip0_262_232">
<rect width="29.9414" height="30" fill="white"/>
</clipPath>
</defs>
</svg>
