<svg width="27" height="22" viewBox="0 0 27 22" fill="none" xmlns="http://www.w3.org/2000/svg">
<path d="M26.6899 3.11605C25.7189 3.53458 24.6642 3.83592 23.5761 3.9531C24.6977 3.28346 25.5515 2.22877 25.9533 0.973189C24.9154 1.59261 23.7435 2.04462 22.5214 2.27899C21.5337 1.2243 20.1274 0.571402 18.5705 0.571402C15.5738 0.571402 13.1631 2.99886 13.1631 5.97878C13.1631 6.3973 13.2133 6.81583 13.297 7.21762C8.81043 6.98324 4.80931 4.84038 2.14748 1.55913C1.67873 2.3627 1.41087 3.28346 1.41087 4.28793C1.41087 6.16293 2.36511 7.8203 3.82159 8.79128C2.93431 8.7578 2.09726 8.50668 1.37739 8.10489C1.37739 8.12163 1.37739 8.15512 1.37739 8.17186C1.37739 10.8002 3.23565 12.9766 5.71333 13.4788C5.26132 13.596 4.77583 13.6629 4.29034 13.6629C3.93878 13.6629 3.60395 13.6295 3.26913 13.5792C3.95552 15.7221 5.94771 17.279 8.32494 17.3292C6.46668 18.7857 4.13967 19.6395 1.61176 19.6395C1.15975 19.6395 0.741228 19.6228 0.305959 19.5725C2.69994 21.1127 5.54592 22 8.60954 22C18.5537 22 23.9946 13.7634 23.9946 6.61494C23.9946 6.38056 23.9946 6.14619 23.9779 5.91181C25.0326 5.14172 25.9533 4.18748 26.6899 3.11605Z" fill="#9BC72D"/>
</svg>
