<svg width="22" height="22" viewBox="0 0 22 22" fill="none" xmlns="http://www.w3.org/2000/svg">
<path d="M0.43381 17.9621C2.47064 19.2546 4.84114 19.9375 7.28864 19.9375C10.8728 19.9375 14.1572 18.5607 16.5378 16.0609C18.8157 13.6684 20.0688 10.4537 20.0065 7.19127C20.87 6.45244 21.8856 5.04169 21.8856 3.66669C21.8856 3.13961 21.3136 2.80502 20.8498 3.07361C20.0386 3.55027 19.2988 3.67494 18.538 3.46136C16.9842 1.94702 14.6715 1.62802 12.7226 2.67852C11.0195 3.59519 10.0726 5.27269 10.1578 7.10602C7.2804 6.75494 4.62206 5.31211 2.76856 3.06994C2.46423 2.70419 1.88673 2.74727 1.64473 3.16161C0.751894 4.69061 0.76106 6.46252 1.53748 7.89344C1.16806 7.95852 0.93981 8.26927 0.93981 8.60569C0.93981 10.0439 1.58698 11.3658 2.62923 12.2678C2.43489 12.4548 2.37073 12.7325 2.45323 12.98C2.91156 14.3569 3.94923 15.433 5.24631 15.972C3.83556 16.6458 2.27539 16.8704 0.886644 16.6999C0.167977 16.6027 -0.186773 17.5689 0.43381 17.9621ZM7.47656 16.2076C7.99081 15.8125 7.71765 14.9894 7.07231 14.9756C5.93564 14.9518 4.90073 14.3917 4.25631 13.5108C4.56706 13.4906 4.88881 13.4429 5.19498 13.3604C5.89256 13.1716 5.85956 12.1651 5.15098 12.023C3.86489 11.7645 2.85564 10.8277 2.47706 9.62136C2.82264 9.70661 3.17464 9.75427 3.52573 9.76069C4.22148 9.76436 4.48456 8.87244 3.91714 8.49936C2.63839 7.65694 2.09298 6.16919 2.45414 4.77036C4.68714 7.03269 7.71673 8.39577 10.9214 8.54977C11.3806 8.57819 11.7253 8.14644 11.6245 7.70919C11.1891 5.82177 12.2432 4.49902 13.3753 3.88944C14.4955 3.28444 16.294 3.09561 17.6726 4.54211C18.0824 4.97386 19.4647 4.99036 20.1678 4.82627C19.8525 5.42027 19.3676 5.98402 18.9138 6.30119C18.7204 6.43686 18.6095 6.66236 18.6214 6.89794C18.769 9.90919 17.647 12.903 15.5432 15.1113C13.4239 17.336 10.4933 18.5616 7.28956 18.5616C6.01539 18.5616 4.76598 18.3544 3.58531 17.9548C4.99698 17.6816 6.33806 17.0839 7.47656 16.2076Z" fill="#94C31F"/>
</svg>
